{
	"accessors" : 
	[
		{
			"bufferView" : 2,
			"byteOffset" : 0,
			"componentType" : 5126,
			"count" : 9988,
			"max" : 
			[
				1,
				1,
				1,
				1
			],
			"min" : 
			[
				0.0697270855307579,
				0.05284162983298302,
				0.01188133470714092,
				1
			],
			"name" : "accessor_color_m0-PolyPaper21_-335644",
			"type" : "VEC4"
		},
		{
			"bufferView" : 2,
			"byteOffset" : 159808,
			"componentType" : 5126,
			"count" : 1320,
			"max" : 
			[
				1,
				1,
				1,
				1
			],
			"min" : 
			[
				1,
				1,
				1,
				1
			],
			"name" : "accessor_color_m1-PolyPaper21_-335780",
			"type" : "VEC4"
		},
		{
			"bufferView" : 2,
			"byteOffset" : 180928,
			"componentType" : 5126,
			"count" : 9842,
			"max" : 
			[
				1,
				1,
				1,
				1
			],
			"min" : 
			[
				0.0697270855307579,
				0.05284162983298302,
				0.01188133470714092,
				1
			],
			"name" : "accessor_color_m2-PolyPaper21_-335638",
			"type" : "VEC4"
		},
		{
			"bufferView" : 0,
			"byteOffset" : 0,
			"componentType" : 5123,
			"count" : 14508,
			"max" : 
			[
				9987
			],
			"min" : 
			[
				0
			],
			"name" : "accessor_indices_0_m0-PolyPaper21_-335644",
			"type" : "SCALAR"
		},
		{
			"bufferView" : 0,
			"byteOffset" : 29016,
			"componentType" : 5123,
			"count" : 1872,
			"max" : 
			[
				1319
			],
			"min" : 
			[
				0
			],
			"name" : "accessor_indices_0_m1-PolyPaper21_-335780",
			"type" : "SCALAR"
		},
		{
			"bufferView" : 0,
			"byteOffset" : 32760,
			"componentType" : 5123,
			"count" : 15006,
			"max" : 
			[
				9841
			],
			"min" : 
			[
				0
			],
			"name" : "accessor_indices_0_m2-PolyPaper21_-335638",
			"type" : "SCALAR"
		},
		{
			"bufferView" : 1,
			"byteOffset" : 119856,
			"componentType" : 5126,
			"count" : 9988,
			"max" : 
			[
				0.9995752,
				0.9995498,
				0.9990458
			],
			"min" : 
			[
				-0.9995753000000001,
				-0.9999821,
				-0.9990458
			],
			"name" : "accessor_normal_m0-PolyPaper21_-335644",
			"type" : "VEC3"
		},
		{
			"bufferView" : 1,
			"byteOffset" : 255552,
			"componentType" : 5126,
			"count" : 1320,
			"max" : 
			[
				0.9932461,
				0.9962091,
				0.9996462
			],
			"min" : 
			[
				-0.993246,
				-0.9962072,
				-0.9996461
			],
			"name" : "accessor_normal_m1-PolyPaper21_-335780",
			"type" : "VEC3"
		},
		{
			"bufferView" : 1,
			"byteOffset" : 389496,
			"componentType" : 5126,
			"count" : 9842,
			"max" : 
			[
				0.9989170000000001,
				0.9998482,
				0.9998575
			],
			"min" : 
			[
				-0.9990674,
				-0.9998519,
				-0.9998574
			],
			"name" : "accessor_normal_m2-PolyPaper21_-335638",
			"type" : "VEC3"
		},
		{
			"bufferView" : 1,
			"byteOffset" : 0,
			"componentType" : 5126,
			"count" : 9988,
			"max" : 
			[
				-0.1334071,
				1.703262,
				-0.3871277
			],
			"min" : 
			[
				-0.3510345,
				1.50487,
				-0.6012099
			],
			"name" : "accessor_position_m0-PolyPaper21_-335644",
			"type" : "VEC3"
		},
		{
			"bufferView" : 1,
			"byteOffset" : 239712,
			"componentType" : 5126,
			"count" : 1320,
			"max" : 
			[
				0.2362416,
				1.681569,
				-0.1602902
			],
			"min" : 
			[
				-0.417405,
				1.441167,
				-0.7877233
			],
			"name" : "accessor_position_m1-PolyPaper21_-335780",
			"type" : "VEC3"
		},
		{
			"bufferView" : 1,
			"byteOffset" : 271392,
			"componentType" : 5126,
			"count" : 9842,
			"max" : 
			[
				0.1048104,
				1.909823,
				-0.1304826
			],
			"min" : 
			[
				-0.3311665,
				1.471976,
				-0.6074243
			],
			"name" : "accessor_position_m2-PolyPaper21_-335638",
			"type" : "VEC3"
		}
	],
	"asset" : 
	{
		"copyright" : "Unknown",
		"generator" : "glTF 1-to-2 Upgrader for Google Blocks",
		"version" : "2.0"
	},
	"bufferViews" : 
	[
		{
			"buffer" : 0,
			"byteLength" : 62772,
			"byteOffset" : 0,
			"name" : "ushortBufferView",
			"target" : 34963
		},
		{
			"buffer" : 0,
			"byteLength" : 507600,
			"byteOffset" : 62772,
			"byteStride" : 12,
			"name" : "vec3BufferView",
			"target" : 34962
		},
		{
			"buffer" : 0,
			"byteLength" : 338400,
			"byteOffset" : 570372,
			"byteStride" : 16,
			"name" : "vec4BufferView",
			"target" : 34962
		}
	],
	"buffers" : 
	[
		{
			"byteLength" : 908772,
			"name" : "model",
			"uri" : "model.bin"
		}
	],
	"materials" : 
	[
		{
			"alphaMode" : "OPAQUE",
			"doubleSided" : false,
			"name" : "BlocksPaper",
			"pbrMetallicRoughness" : 
			{
				"baseColorFactor" : 
				[
					1,
					1,
					1,
					1
				],
				"metallicFactor" : 0,
				"roughnessFactor" : 0.6
			}
		},
		{
			"alphaMode" : "BLEND",
			"doubleSided" : false,
			"name" : "BlocksGlass",
			"pbrMetallicRoughness" : 
			{
				"baseColorFactor" : 
				[
					0.2,
					0.2,
					1,
					0.3
				],
				"metallicFactor" : 1,
				"roughnessFactor" : 0.4
			}
		},
		{
			"alphaMode" : "OPAQUE",
			"doubleSided" : true,
			"name" : "BlocksGem",
			"pbrMetallicRoughness" : 
			{
				"baseColorFactor" : 
				[
					1,
					0.4,
					1,
					1
				],
				"metallicFactor" : 0,
				"roughnessFactor" : 0.1
			}
		}
	],
	"meshes" : 
	[
		{
			"name" : "mesh_m0-PolyPaper21_-335644",
			"primitives" : 
			[
				{
					"attributes" : 
					{
						"COLOR_0" : 0,
						"NORMAL" : 6,
						"POSITION" : 9
					},
					"indices" : 3,
					"material" : 0,
					"mode" : 4
				}
			]
		},
		{
			"name" : "mesh_m1-PolyPaper21_-335780",
			"primitives" : 
			[
				{
					"attributes" : 
					{
						"COLOR_0" : 1,
						"NORMAL" : 7,
						"POSITION" : 10
					},
					"indices" : 4,
					"material" : 0,
					"mode" : 4
				}
			]
		},
		{
			"name" : "mesh_m2-PolyPaper21_-335638",
			"primitives" : 
			[
				{
					"attributes" : 
					{
						"COLOR_0" : 2,
						"NORMAL" : 8,
						"POSITION" : 11
					},
					"indices" : 5,
					"material" : 0,
					"mode" : 4
				}
			]
		}
	],
	"nodes" : 
	[
		{
			"matrix" : 
			[
				1,
				0,
				0,
				0,
				0,
				1,
				0,
				0,
				0,
				0,
				1,
				0,
				0,
				0,
				0,
				1
			],
			"mesh" : 2,
			"name" : "node_MeshObject-1199653568-PolyPaper21"
		},
		{
			"matrix" : 
			[
				1,
				0,
				0,
				0,
				0,
				1,
				0,
				0,
				0,
				0,
				1,
				0,
				0,
				0,
				0,
				1
			],
			"mesh" : 1,
			"name" : "node_MeshObject-1344860352-PolyPaper21"
		},
		{
			"matrix" : 
			[
				1,
				0,
				0,
				0,
				0,
				1,
				0,
				0,
				0,
				0,
				1,
				0,
				0,
				0,
				0,
				1
			],
			"mesh" : 0,
			"name" : "node_MeshObject-162213440-PolyPaper21"
		}
	],
	"scene" : 0,
	"scenes" : 
	[
		{
			"extras" : {},
			"name" : "defaultScene",
			"nodes" : 
			[
				2,
				1,
				0
			]
		}
	]
}